<svg width="368" height="89" xmlns="http://www.w3.org/2000/svg"><g fill="none" fill-rule="evenodd"><path d="M202.36 3.36c3.84 0 7.467.733 10.88 2.2 3.413 1.467 6.387 3.467 8.92 6 2.533 2.533 4.533 5.507 6 8.92 1.467 3.413 2.2 7.04 2.2 10.88 0 3.84-.733 7.467-2.2 10.88-1.467 3.413-3.467 6.387-6 8.92-2.533 2.533-5.507 4.533-8.92 6-3.413 1.467-7.04 2.2-10.88 2.2-3.84 0-7.467-.733-10.88-2.2-3.413-1.467-6.387-3.467-8.92-6-2.533-2.533-4.533-5.507-6-8.92-1.467-3.413-2.2-7.04-2.2-10.88 0-3.84.733-7.467 2.2-10.88 1.467-3.413 3.467-6.387 6-8.92 2.533-2.533 5.507-4.533 8.92-6 3.413-1.467 7.04-2.2 10.88-2.2zm0 16.8c-1.547 0-3 .293-4.36.88a11.323 11.323 0 00-3.56 2.4 11.323 11.323 0 00-2.4 3.56 10.889 10.889 0 00-.88 4.36c0 1.547.293 3 .88 4.36a11.323 11.323 0 002.4 3.56 11.323 11.323 0 003.56 2.4c1.36.587 2.813.88 4.36.88 1.547 0 3-.293 4.36-.88a11.323 11.323 0 003.56-2.4 11.323 11.323 0 002.4-3.56c.587-1.36.88-2.813.88-4.36 0-1.547-.293-3-.88-4.36a11.323 11.323 0 00-2.4-3.56 11.323 11.323 0 00-3.56-2.4 10.889 10.889 0 00-4.36-.88z" fill="#790000"/><path d="M331.066 83.34l6.835-38.761-9.69-1.709 2.43-13.787 36.714 6.473-2.43 13.788-9.691-1.709-6.835 38.762-17.333-3.056zm-43.961-7.75l3.987-22.612-11.03-32.814 18.672 3.293 4.029 12.164 8.025-10.039 18.672 3.292-21.587 27.063-3.987 22.611-16.781-2.959zm-34.272-6.044l2.21-12.527c-3.362-.592-6.436-1.513-9.221-2.763-2.786-1.249-5.13-2.854-7.031-4.814-1.902-1.96-3.259-4.324-4.07-7.094-.811-2.77-.898-5.967-.258-9.59.639-3.625 1.813-6.6 3.523-8.925 1.71-2.325 3.793-4.083 6.25-5.274 2.458-1.192 5.21-1.898 8.254-2.12 3.045-.22 6.248-.035 9.61.558l16.78 2.959-9.266 52.55-16.78-2.96zm4-26.833l.71.125 2.056-11.66-.71-.125c-2.205-.389-3.885-.157-5.037.696-1.152.853-1.89 2.198-2.214 4.037-.325 1.838-.091 3.355.7 4.55.791 1.196 2.29 1.988 4.496 2.377z" fill="#980000" fill-rule="nonzero"/><path d="M17.84 55V35.8l10.96 16 10.88-16V55h17.04V1.64H42.64L28.8 22.12 14.88 1.64H.8V55h17.04zm71.28 1.36c3.84 0 7.467-.733 10.88-2.2 3.413-1.467 6.387-3.467 8.92-6 2.533-2.533 4.533-5.507 6-8.92 1.467-3.413 2.2-7.04 2.2-10.88 0-3.84-.733-7.467-2.2-10.88-1.467-3.413-3.467-6.387-6-8.92-2.533-2.533-5.507-4.533-8.92-6-3.413-1.467-7.04-2.2-10.88-2.2-3.84 0-7.467.733-10.88 2.2-3.413 1.467-6.387 3.467-8.92 6-2.533 2.533-4.533 5.507-6 8.92-1.467 3.413-2.2 7.04-2.2 10.88 0 3.84.733 7.467 2.2 10.88 1.467 3.413 3.467 6.387 6 8.92 2.533 2.533 5.507 4.533 8.92 6 3.413 1.467 7.04 2.2 10.88 2.2zm0-16.8c-1.547 0-3-.293-4.36-.88a11.323 11.323 0 01-3.56-2.4 11.323 11.323 0 01-2.4-3.56 10.889 10.889 0 01-.88-4.36c0-1.547.293-3 .88-4.36a11.323 11.323 0 012.4-3.56 11.323 11.323 0 013.56-2.4c1.36-.587 2.813-.88 4.36-.88 1.547 0 3 .293 4.36.88a11.323 11.323 0 013.56 2.4 11.323 11.323 0 012.4 3.56c.587 1.36.88 2.813.88 4.36 0 1.547-.293 3-.88 4.36a11.323 11.323 0 01-2.4 3.56 11.323 11.323 0 01-3.56 2.4c-1.36.587-2.813.88-4.36.88zM138.24 55V34.52L152.88 55h14.08V1.64h-16.72V22.2L135.52 1.64h-14V55h16.72zm61.12 1.36c3.84 0 7.467-.733 10.88-2.2 3.413-1.467 6.387-3.467 8.92-6 2.533-2.533 4.533-5.507 6-8.92 1.467-3.413 2.2-7.04 2.2-10.88 0-3.84-.733-7.467-2.2-10.88-1.467-3.413-3.467-6.387-6-8.92-2.533-2.533-5.507-4.533-8.92-6-3.413-1.467-7.04-2.2-10.88-2.2-3.84 0-7.467.733-10.88 2.2-3.413 1.467-6.387 3.467-8.92 6-2.533 2.533-4.533 5.507-6 8.92-1.467 3.413-2.2 7.04-2.2 10.88 0 3.84.733 7.467 2.2 10.88 1.467 3.413 3.467 6.387 6 8.92 2.533 2.533 5.507 4.533 8.92 6 3.413 1.467 7.04 2.2 10.88 2.2zm0-16.8c-1.547 0-3-.293-4.36-.88a11.323 11.323 0 01-3.56-2.4 11.323 11.323 0 01-2.4-3.56 10.889 10.889 0 01-.88-4.36c0-1.547.293-3 .88-4.36a11.323 11.323 0 012.4-3.56 11.323 11.323 0 013.56-2.4c1.36-.587 2.813-.88 4.36-.88 1.547 0 3 .293 4.36.88a11.323 11.323 0 013.56 2.4 11.323 11.323 0 012.4 3.56c.587 1.36.88 2.813.88 4.36 0 1.547-.293 3-.88 4.36a11.323 11.323 0 01-2.4 3.56 11.323 11.323 0 01-3.56 2.4c-1.36.587-2.813.88-4.36.88z" fill="#E40000" fill-rule="nonzero"/></g></svg>